<svg xmlns="http://www.w3.org/2000/svg" enable-background="new 0 0 96 96" viewBox="0 0 96 96"><linearGradient id="a" x1="663.608" x2="690.724" y1="106.325" y2="76.446" gradientTransform="matrix(3.0757 0 0 -3.0757 -2035.172 328.627)" gradientUnits="userSpaceOnUse"><stop offset="0" stop-color="#ed277a"/><stop offset="1" stop-color="#f47721"/></linearGradient><path fill="url(#a)" d="M20.288,0h55.424C86.917,0,96,9.083,96,20.288v55.424C96,86.917,86.917,96,75.712,96H20.288  C9.083,96,0,86.917,0,75.712V20.288C0,9.083,9.083,0,20.288,0z"/><path fill="#f1f2f2" d="M73,39.999h-3.5v-0.5c0-0.827-0.673-1.5-1.5-1.5h-0.479v-2.5c0-1.93-1.57-3.5-3.5-3.5h-10   c-1.93,0-3.5,1.57-3.5,3.5v2.5H50c-0.176,0-0.343,0.036-0.5,0.092v-1.595c0-1.93-1.57-3.5-3.5-3.5H24c-1.93,0-3.5,1.57-3.5,3.5   v2.006c0,0.276,0.224,0.5,0.5,0.5h5.5v21.5c0,1.901,1.526,3.445,3.416,3.491c0.015,0.001,0.027,0.009,0.042,0.009h22   c0.005,0,0.009-0.003,0.015-0.003H73c1.379,0,2.5-1.122,2.5-2.5v-15v-4C75.5,41.12,74.379,39.999,73,39.999z M74.5,42.499v4   c0,1.93-1.57,3.5-3.5,3.5h-2.5v-9H69h4C73.827,40.999,74.5,41.671,74.5,42.499z M64.5,57.001H65L67.5,57v0.292l-1.5,1.5l-1.5-1.5   V57.001z M68.012,56.001c-0.004,0-0.008-0.002-0.012-0.002s-0.008,0.002-0.012,0.002H66.5v-0.502c0-0.276-0.224-0.5-0.5-0.5   s-0.5,0.224-0.5,0.5v0.502h-1.485c-0.005,0-0.009-0.003-0.015-0.003s-0.009,0.003-0.015,0.003H63.5v-2l5-0.002v2.002H68.012z    M48.935,40.999c0.022,0.003,0.042,0.013,0.065,0.013s0.043-0.01,0.065-0.013h0.455v9H47c-1.93,0-3.5-1.57-3.5-3.5v-4   c0-0.827,0.673-1.5,1.5-1.5h1H48.935z M54,37.999h-0.479v-2.5c0-0.276,0.225-0.5,0.5-0.5h10c0.275,0,0.5,0.224,0.5,0.5v2.5H64   c-0.827,0-1.5,0.673-1.5,1.5v0.5h-7v-0.5C55.5,38.671,54.827,37.999,54,37.999z M54.458,54v2h-0.43   c-0.003,0-0.005-0.001-0.007-0.001S54.016,56,54.013,56h-1.493v-0.501c0-0.276-0.224-0.5-0.5-0.5s-0.5,0.224-0.5,0.5V56h-1.49   c-0.003,0-0.006-0.002-0.01-0.002S50.014,56,50.011,56h-0.553v-2H54.458z M50.521,57h3v0.292l-1.5,1.5l-1.5-1.5V57z M53.521,53h-3   V40.999h3V53z M45,62.999c-0.827,0-1.5-0.673-1.5-1.5V49.292c0.825,1.032,2.079,1.706,3.5,1.706h2.521V53h-0.563   c-0.276,0-0.5,0.224-0.5,0.5v3c0,0.276,0.224,0.5,0.5,0.5h0.563v0.499c0,0.133,0.053,0.26,0.146,0.354l2,2   c0.098,0.098,0.226,0.146,0.354,0.146s0.256-0.049,0.354-0.146l2-2c0.094-0.094,0.146-0.221,0.146-0.354V57h0.438   c0.276,0,0.5-0.224,0.5-0.5v-3c0-0.276-0.224-0.5-0.5-0.5h-0.438v-2.001h4v12H45z M59.059,49.999   c-0.013-0.001-0.025-0.008-0.039-0.008s-0.025,0.007-0.039,0.008h-4.461v-9H55h8h0.5v9H59.059z M64.5,53.001V40.999h3v12.002H64.5z    M68.5,39.499v0.5H68h-4h-0.5v-0.5c0-0.276,0.225-0.5,0.5-0.5h4C68.275,38.999,68.5,39.223,68.5,39.499z M51.521,35.499   c0-1.378,1.121-2.5,2.5-2.5h10c1.379,0,2.5,1.122,2.5,2.5v2.5h-1v-2.5c0-0.827-0.673-1.5-1.5-1.5h-10c-0.827,0-1.5,0.673-1.5,1.5   v2.5h-1V35.499z M50,38.999h4c0.275,0,0.5,0.224,0.5,0.5v0.5h-0.479h-4H49.5v-0.5C49.5,39.223,49.725,38.999,50,38.999z    M21.5,38.001v-1.506c0-1.378,1.121-2.5,2.5-2.5s2.5,1.122,2.5,2.5v1v0.506H21.5z M27.5,60.501v-22v-1.006v-1   c0-0.98-0.407-1.864-1.058-2.5H46c1.379,0,2.5,1.122,2.5,2.5v3.003v0.5H46h-1h-6c-0.276,0-0.5,0.224-0.5,0.5s0.224,0.5,0.5,0.5   h4.013c-0.221,0.292-0.386,0.628-0.462,1H39c-0.276,0-0.5,0.224-0.5,0.5s0.224,0.5,0.5,0.5h3.5V45h-13c-0.276,0-0.5,0.224-0.5,0.5   v2c0,0.276,0.224,0.5,0.5,0.5h13v0.999H32c-0.276,0-0.5,0.224-0.5,0.5s0.224,0.5,0.5,0.5h10.5v1H32c-0.276,0-0.5,0.224-0.5,0.5   s0.224,0.5,0.5,0.5h10.5v1H32c-0.276,0-0.5,0.224-0.5,0.5s0.224,0.5,0.5,0.5h10.5v1H32c-0.276,0-0.5,0.224-0.5,0.5   s0.224,0.5,0.5,0.5h10.5v1H32c-0.276,0-0.5,0.224-0.5,0.5s0.224,0.5,0.5,0.5h10.5v0.997H33c-0.276,0-0.5,0.224-0.5,0.5v1.006   c0,1.378-1.121,2.5-2.5,2.5S27.5,61.88,27.5,60.501z M42,46v1H30v-1H42z M33.5,60.501v-0.506h9v1.503   c0,0.566,0.196,1.083,0.515,1.503H32.442C33.093,62.365,33.5,61.481,33.5,60.501z M74.5,61.499c0,0.827-0.673,1.5-1.5,1.5H59.521   v-12H63.5v2.002H63c-0.276,0-0.5,0.224-0.5,0.5v3c0,0.276,0.224,0.5,0.5,0.5h0.5v0.498c0,0.133,0.053,0.26,0.146,0.354l2,2   c0.098,0.098,0.226,0.146,0.354,0.146s0.256-0.049,0.354-0.146l2-2c0.094-0.094,0.146-0.221,0.146-0.354v-0.499l0.5,0   c0.276,0,0.5-0.224,0.5-0.5v-2.998c0-0.276-0.224-0.5-0.5-0.5h-0.5v-2.002H71c1.421,0,2.675-0.675,3.5-1.706V61.499z"/><circle cx="52.021" cy="47.491" r=".5" fill="#f1f2f2"/><circle cx="52.021" cy="49.491" r=".5" fill="#f1f2f2"/><circle cx="52.021" cy="51.491" r=".5" fill="#f1f2f2"/><circle cx="52.021" cy="45.491" r=".5" fill="#f1f2f2"/><circle cx="66.021" cy="47.491" r=".5" fill="#f1f2f2"/><circle cx="66.021" cy="49.491" r=".5" fill="#f1f2f2"/><circle cx="66.021" cy="51.491" r=".5" fill="#f1f2f2"/><circle cx="66.021" cy="45.491" r=".5" fill="#f1f2f2"/><path fill="#f1f2f2" d="M29.5 43h6c.276 0 .5-.224.5-.5v-6c0-.276-.224-.5-.5-.5h-6c-.276 0-.5.224-.5.5v6C29 42.776 29.224 43 29.5 43zM30 37h5v5h-5V37zM38.5 39h7c.276 0 .5-.224.5-.5v-2c0-.276-.224-.5-.5-.5h-7c-.276 0-.5.224-.5.5v2C38 38.776 38.224 39 38.5 39zM39 37h6v1h-6V37z"/><circle cx="30" cy="49.499" r=".5" fill="#f1f2f2"/><circle cx="30" cy="51.499" r=".5" fill="#f1f2f2"/><circle cx="30" cy="53.499" r=".5" fill="#f1f2f2"/><circle cx="30" cy="55.499" r=".5" fill="#f1f2f2"/><circle cx="30" cy="57.499" r=".5" fill="#f1f2f2"/></svg>